<?xml version="1.0" encoding="UTF-8"?>
<svg xmlns="http://www.w3.org/2000/svg" xmlns:xlink="http://www.w3.org/1999/xlink" width="265px" height="140px" viewBox="0 0 265 140" version="1.1">
  <g id="surface1">
    <path style=" stroke:none;fill-rule:nonzero;fill:rgb(90.588236%,23.529412%,27.843139%);fill-opacity:1;" d="M 47.609375 0 L 116.359375 0 L 116.359375 7.921875 L 47.609375 7.921875 Z M 47.609375 0 " />
    <path style=" stroke:none;fill-rule:nonzero;fill:rgb(10.588235%,41.568628%,69.803923%);fill-opacity:1;" d="M 0.152344 0 L 47.609375 0 L 47.609375 7.921875 L 0.152344 7.921875 Z M 0.152344 0 " />
    <path style=" stroke:none;fill-rule:nonzero;fill:rgb(10.196079%,23.921569%,42.352942%);fill-opacity:1;" d="M 133.121094 73.742188 C 131.402344 73.742188 129.953125 73.128906 128.925781 72.367188 L 129.878906 70.402344 C 130.621094 71.050781 131.976562 71.640625 133.160156 71.640625 C 134.34375 71.640625 135.144531 70.917969 135.144531 69.941406 C 135.144531 67.210938 129.1875 68.570312 129.1875 64.023438 C 129.1875 62.078125 130.714844 60.472656 133.730469 60.472656 C 135.238281 60.472656 136.515625 60.796875 137.566406 61.351562 L 136.726562 63.355469 C 136.023438 62.9375 134.875 62.652344 133.695312 62.652344 C 132.511719 62.652344 131.765625 63.035156 131.765625 63.988281 C 131.765625 66.296875 137.757812 65.402344 137.757812 69.789062 C 137.757812 71.832031 136.058594 73.742188 133.121094 73.742188 Z M 133.121094 73.742188 " />
    <path style=" stroke:none;fill-rule:nonzero;fill:rgb(10.196079%,23.921569%,42.352942%);fill-opacity:1;" d="M 141.800781 69.542969 C 141.800781 71.03125 142.640625 71.851562 144.207031 71.851562 C 145.160156 71.851562 146.132812 71.488281 146.953125 71.070312 L 147.429688 72.824219 C 146.648438 73.242188 145.371094 73.742188 143.898438 73.742188 C 141.019531 73.742188 139.300781 71.945312 139.300781 68.855469 C 139.300781 65.972656 140.695312 64.003906 143.691406 64.003906 C 146.515625 64.003906 147.621094 66.105469 147.621094 68.453125 L 147.621094 69.539062 L 141.800781 69.539062 Z M 143.554688 65.839844 C 142.316406 65.839844 141.800781 66.964844 141.800781 68.070312 L 145.214844 68.070312 C 145.214844 66.871094 144.855469 65.839844 143.554688 65.839844 Z M 143.554688 65.839844 " />
    <path style=" stroke:none;fill-rule:nonzero;fill:rgb(10.196079%,23.921569%,42.352942%);fill-opacity:1;" d="M 154.8125 66.277344 C 154.507812 66.183594 154.070312 66.125 153.652344 66.125 C 152.984375 66.125 152.390625 66.410156 151.972656 66.753906 L 151.972656 73.550781 L 149.492188 73.550781 L 149.492188 64.195312 L 151.226562 64.195312 L 151.496094 65.457031 L 151.550781 65.457031 C 151.835938 64.789062 152.679688 64.023438 153.785156 64.023438 C 154.28125 64.023438 154.664062 64.101562 154.871094 64.160156 Z M 154.8125 66.277344 " />
    <path style=" stroke:none;fill-rule:nonzero;fill:rgb(10.196079%,23.921569%,42.352942%);fill-opacity:1;" d="M 161.777344 73.550781 L 158.136719 73.550781 L 155.332031 64.195312 L 158.136719 64.195312 L 160.097656 72.042969 L 160.175781 72.042969 L 162.121094 64.195312 L 164.640625 64.195312 Z M 161.777344 73.550781 " />
    <path style=" stroke:none;fill-rule:nonzero;fill:rgb(10.196079%,23.921569%,42.352942%);fill-opacity:1;" d="M 166.660156 73.550781 L 166.660156 65.992188 L 165.574219 65.761719 L 165.574219 64.199219 L 169.140625 64.199219 L 169.140625 73.550781 Z M 166.585938 60.375 L 169.101562 60.375 L 169.101562 62.648438 L 166.585938 62.648438 Z M 166.585938 60.375 " />
    <path style=" stroke:none;fill-rule:nonzero;fill:rgb(10.196079%,23.921569%,42.352942%);fill-opacity:1;" d="M 178.855469 72.921875 C 178.320312 73.207031 177.0625 73.742188 175.648438 73.742188 C 172.863281 73.742188 171.183594 72.15625 171.183594 68.875 C 171.183594 65.820312 172.863281 64.007812 175.628906 64.007812 C 176.871094 64.007812 177.9375 64.253906 178.835938 64.769531 L 178.1875 66.46875 C 177.519531 66.066406 176.660156 65.898438 175.839844 65.898438 C 174.542969 65.898438 173.722656 66.773438 173.722656 68.875 C 173.722656 70.972656 174.507812 71.851562 175.859375 71.851562 C 176.832031 71.851562 177.789062 71.488281 178.398438 71.144531 Z M 178.855469 72.921875 " />
    <path style=" stroke:none;fill-rule:nonzero;fill:rgb(10.196079%,23.921569%,42.352942%);fill-opacity:1;" d="M 181.277344 73.550781 L 181.277344 65.992188 L 180.191406 65.761719 L 180.191406 64.199219 L 183.757812 64.199219 L 183.757812 73.550781 Z M 181.203125 60.375 L 183.71875 60.375 L 183.71875 62.648438 L 181.203125 62.648438 Z M 181.203125 60.375 " />
    <path style=" stroke:none;fill-rule:nonzero;fill:rgb(10.196079%,23.921569%,42.352942%);fill-opacity:1;" d="M 194.425781 68.855469 C 194.425781 72.042969 192.820312 73.742188 190.035156 73.742188 C 187.25 73.742188 185.648438 72.0625 185.648438 68.855469 C 185.648438 66.105469 187.175781 64.003906 190.035156 64.003906 C 192.898438 64.003906 194.425781 66.105469 194.425781 68.855469 Z M 191.867188 68.855469 C 191.867188 66.601562 191.199219 65.820312 190.035156 65.820312 C 188.871094 65.820312 188.222656 66.621094 188.222656 68.855469 C 188.222656 71.085938 188.816406 71.90625 190.035156 71.90625 C 191.257812 71.90625 191.867188 71.085938 191.867188 68.855469 Z M 191.867188 68.855469 " />
    <path style=" stroke:none;fill-rule:nonzero;fill:rgb(10.196079%,23.921569%,42.352942%);fill-opacity:1;" d="M 206.539062 64.921875 C 206.386719 64.386719 206.308594 63.910156 206.308594 63.203125 L 206.308594 60.375 L 208.789062 60.375 L 208.789062 73.550781 L 206.769531 73.550781 L 206.484375 72.519531 C 206.101562 73.09375 205.203125 73.742188 204.003906 73.742188 C 201.882812 73.742188 200.1875 72.214844 200.1875 68.875 C 200.1875 65.78125 201.941406 64.007812 204.210938 64.007812 C 205.222656 64.007812 206.023438 64.351562 206.539062 64.921875 Z M 206.308594 66.335938 C 205.929688 66.105469 205.339844 65.875 204.613281 65.875 C 203.429688 65.875 202.683594 66.679688 202.683594 68.855469 C 202.683594 71.03125 203.390625 71.929688 204.574219 71.929688 C 205.203125 71.929688 205.835938 71.621094 206.308594 71.125 Z M 206.308594 66.335938 " />
    <path style=" stroke:none;fill-rule:nonzero;fill:rgb(10.196079%,23.921569%,42.352942%);fill-opacity:1;" d="M 213.179688 69.542969 C 213.179688 71.03125 214.019531 71.851562 215.582031 71.851562 C 216.535156 71.851562 217.511719 71.488281 218.332031 71.070312 L 218.808594 72.824219 C 218.023438 73.242188 216.746094 73.742188 215.277344 73.742188 C 212.394531 73.742188 210.679688 71.945312 210.679688 68.855469 C 210.679688 65.972656 212.074219 64.003906 215.066406 64.003906 C 217.890625 64.003906 219 66.105469 219 68.453125 L 219 69.539062 L 213.179688 69.539062 Z M 214.933594 65.839844 C 213.695312 65.839844 213.179688 66.964844 213.179688 68.070312 L 216.59375 68.070312 C 216.59375 66.871094 216.230469 65.839844 214.933594 65.839844 Z M 214.933594 65.839844 " />
    <path style=" stroke:none;fill-rule:nonzero;fill:rgb(10.196079%,23.921569%,42.352942%);fill-opacity:1;" d="M 133.597656 92.585938 C 131.632812 92.585938 130.601562 92.316406 129.417969 91.878906 L 129.417969 79.507812 L 133.3125 79.507812 C 136.058594 79.507812 137.8125 80.710938 137.8125 82.828125 C 137.8125 84.414062 136.859375 85.3125 135.734375 85.65625 L 135.734375 85.75 C 137.296875 86.035156 138.5 87.105469 138.5 88.691406 C 138.5 91.019531 136.480469 92.585938 133.597656 92.585938 Z M 133.214844 81.550781 L 131.917969 81.550781 L 131.917969 84.910156 L 133.214844 84.910156 C 134.492188 84.910156 135.179688 84.414062 135.179688 83.078125 C 135.179688 82.027344 134.492188 81.550781 133.214844 81.550781 Z M 133.632812 86.761719 L 131.917969 86.761719 L 131.917969 90.234375 C 132.335938 90.390625 132.871094 90.542969 133.59375 90.542969 C 134.835938 90.542969 135.867188 89.933594 135.867188 88.578125 C 135.867188 87.316406 135.082031 86.761719 133.632812 86.761719 Z M 133.632812 86.761719 " />
    <path style=" stroke:none;fill-rule:nonzero;fill:rgb(10.196079%,23.921569%,42.352942%);fill-opacity:1;" d="M 140.90625 92.394531 L 140.90625 84.835938 L 139.816406 84.605469 L 139.816406 83.039062 L 143.386719 83.039062 L 143.386719 92.394531 Z M 140.828125 79.21875 L 143.34375 79.21875 L 143.34375 81.492188 L 140.828125 81.492188 Z M 140.828125 79.21875 " />
    <path style=" stroke:none;fill-rule:nonzero;fill:rgb(10.196079%,23.921569%,42.352942%);fill-opacity:1;" d="M 154.050781 87.695312 C 154.050781 90.882812 152.445312 92.585938 149.664062 92.585938 C 146.875 92.585938 145.273438 90.90625 145.273438 87.695312 C 145.273438 84.949219 146.800781 82.847656 149.664062 82.847656 C 152.523438 82.847656 154.050781 84.949219 154.050781 87.695312 Z M 151.492188 87.695312 C 151.492188 85.445312 150.824219 84.660156 149.664062 84.660156 C 148.5 84.660156 147.851562 85.464844 147.851562 87.695312 C 147.851562 89.929688 148.441406 90.75 149.664062 90.75 C 150.882812 90.75 151.492188 89.929688 151.492188 87.695312 Z M 151.492188 87.695312 " />
    <path style=" stroke:none;fill-rule:nonzero;fill:rgb(10.196079%,23.921569%,42.352942%);fill-opacity:1;" d="M 161.96875 83.765625 C 161.816406 83.230469 161.738281 82.753906 161.738281 82.046875 L 161.738281 79.21875 L 164.21875 79.21875 L 164.21875 92.394531 L 162.199219 92.394531 L 161.914062 91.363281 C 161.53125 91.9375 160.632812 92.585938 159.433594 92.585938 C 157.3125 92.585938 155.617188 91.058594 155.617188 87.71875 C 155.617188 84.625 157.371094 82.851562 159.640625 82.851562 C 160.652344 82.851562 161.453125 83.191406 161.96875 83.765625 Z M 161.738281 85.175781 C 161.359375 84.949219 160.765625 84.71875 160.042969 84.71875 C 158.859375 84.71875 158.113281 85.519531 158.113281 87.695312 C 158.113281 89.871094 158.820312 90.769531 160.003906 90.769531 C 160.632812 90.769531 161.261719 90.464844 161.738281 89.96875 Z M 161.738281 85.175781 " />
    <path style=" stroke:none;fill-rule:nonzero;fill:rgb(10.196079%,23.921569%,42.352942%);fill-opacity:1;" d="M 167.234375 92.394531 L 167.234375 84.835938 L 166.148438 84.605469 L 166.148438 83.039062 L 169.714844 83.039062 L 169.714844 92.394531 Z M 167.160156 79.21875 L 169.675781 79.21875 L 169.675781 81.492188 L 167.160156 81.492188 Z M 167.160156 79.21875 " />
    <path style=" stroke:none;fill-rule:nonzero;fill:rgb(10.196079%,23.921569%,42.352942%);fill-opacity:1;" d="M 177.441406 92.394531 L 173.800781 92.394531 L 170.996094 83.039062 L 173.800781 83.039062 L 175.761719 90.886719 L 175.839844 90.886719 L 177.785156 83.039062 L 180.304688 83.039062 Z M 177.441406 92.394531 " />
    <path style=" stroke:none;fill-rule:nonzero;fill:rgb(10.196079%,23.921569%,42.352942%);fill-opacity:1;" d="M 183.699219 88.382812 C 183.699219 89.871094 184.539062 90.691406 186.105469 90.691406 C 187.058594 90.691406 188.03125 90.332031 188.851562 89.910156 L 189.328125 91.667969 C 188.546875 92.085938 187.269531 92.582031 185.800781 92.582031 C 182.917969 92.582031 181.203125 90.789062 181.203125 87.695312 C 181.203125 84.8125 182.59375 82.847656 185.589844 82.847656 C 188.414062 82.847656 189.519531 84.945312 189.519531 87.292969 L 189.519531 88.382812 Z M 185.457031 84.679688 C 184.214844 84.679688 183.699219 85.808594 183.699219 86.914062 L 187.117188 86.914062 C 187.117188 85.710938 186.753906 84.679688 185.457031 84.679688 Z M 185.457031 84.679688 " />
    <path style=" stroke:none;fill-rule:nonzero;fill:rgb(10.196079%,23.921569%,42.352942%);fill-opacity:1;" d="M 196.714844 85.121094 C 196.40625 85.023438 195.96875 84.96875 195.550781 84.96875 C 194.882812 84.96875 194.289062 85.253906 193.871094 85.597656 L 193.871094 92.394531 L 191.390625 92.394531 L 191.390625 83.039062 L 193.125 83.039062 L 193.394531 84.300781 L 193.453125 84.300781 C 193.738281 83.632812 194.578125 82.867188 195.683594 82.867188 C 196.179688 82.867188 196.5625 82.945312 196.769531 83 Z M 196.714844 85.121094 " />
    <path style=" stroke:none;fill-rule:nonzero;fill:rgb(10.196079%,23.921569%,42.352942%);fill-opacity:1;" d="M 200.1875 85.503906 C 200.1875 86.953125 204.230469 86.515625 204.230469 89.570312 C 204.230469 91.265625 202.972656 92.585938 200.546875 92.585938 C 199.421875 92.585938 198.375 92.261719 197.742188 91.898438 L 198.257812 90.160156 C 198.699219 90.46875 199.613281 90.808594 200.472656 90.808594 C 201.332031 90.808594 201.84375 90.351562 201.84375 89.78125 C 201.84375 88.101562 197.859375 88.652344 197.859375 85.464844 C 197.859375 84.089844 198.90625 82.851562 201.425781 82.851562 C 202.398438 82.851562 203.410156 83.039062 204.058594 83.308594 L 203.714844 85.121094 C 203.085938 84.835938 202.285156 84.644531 201.464844 84.644531 C 200.644531 84.644531 200.1875 84.96875 200.1875 85.503906 Z M 200.1875 85.503906 " />
    <path style=" stroke:none;fill-rule:nonzero;fill:rgb(10.196079%,23.921569%,42.352942%);fill-opacity:1;" d="M 206.960938 92.394531 L 206.960938 84.835938 L 205.871094 84.605469 L 205.871094 83.039062 L 209.441406 83.039062 L 209.441406 92.394531 Z M 206.882812 79.21875 L 209.402344 79.21875 L 209.402344 81.492188 L 206.882812 81.492188 Z M 206.882812 79.21875 " />
    <path style=" stroke:none;fill-rule:nonzero;fill:rgb(10.196079%,23.921569%,42.352942%);fill-opacity:1;" d="M 217.757812 83.765625 C 217.605469 83.230469 217.53125 82.753906 217.53125 82.046875 L 217.53125 79.21875 L 220.011719 79.21875 L 220.011719 92.394531 L 217.988281 92.394531 L 217.703125 91.363281 C 217.320312 91.9375 216.425781 92.585938 215.222656 92.585938 C 213.101562 92.585938 211.40625 91.058594 211.40625 87.71875 C 211.40625 84.625 213.160156 82.851562 215.429688 82.851562 C 216.441406 82.851562 217.242188 83.191406 217.757812 83.765625 Z M 217.53125 85.175781 C 217.148438 84.949219 216.558594 84.71875 215.832031 84.71875 C 214.648438 84.71875 213.90625 85.519531 213.90625 87.695312 C 213.90625 89.871094 214.609375 90.769531 215.792969 90.769531 C 216.421875 90.769531 217.050781 90.464844 217.53125 89.96875 Z M 217.53125 85.175781 " />
    <path style=" stroke:none;fill-rule:nonzero;fill:rgb(10.196079%,23.921569%,42.352942%);fill-opacity:1;" d="M 228.023438 92.394531 L 227.679688 91.289062 C 227.203125 91.9375 226.269531 92.585938 224.949219 92.585938 C 223.082031 92.585938 221.820312 91.382812 221.820312 89.589844 C 221.820312 87.792969 223.097656 86.820312 225.351562 86.820312 L 227.316406 86.820312 L 227.316406 86.34375 C 227.316406 85.140625 226.628906 84.757812 225.675781 84.757812 C 224.570312 84.757812 223.632812 85.042969 222.871094 85.386719 L 222.242188 83.613281 C 223.175781 83.210938 224.453125 82.851562 225.925781 82.851562 C 228.574219 82.851562 229.71875 84.070312 229.71875 86.457031 L 229.71875 92.394531 Z M 227.316406 88.308594 L 225.773438 88.308594 C 224.742188 88.308594 224.265625 88.804688 224.265625 89.511719 C 224.265625 90.371094 224.722656 90.882812 225.660156 90.882812 C 226.25 90.882812 226.859375 90.617188 227.320312 90.253906 L 227.320312 88.308594 Z M 227.316406 88.308594 " />
    <path style=" stroke:none;fill-rule:nonzero;fill:rgb(10.196079%,23.921569%,42.352942%);fill-opacity:1;" d="M 237.945312 83.765625 C 237.792969 83.230469 237.714844 82.753906 237.714844 82.046875 L 237.714844 79.21875 L 240.195312 79.21875 L 240.195312 92.394531 L 238.175781 92.394531 L 237.890625 91.363281 C 237.507812 91.9375 236.609375 92.585938 235.410156 92.585938 C 233.289062 92.585938 231.59375 91.058594 231.59375 87.71875 C 231.59375 84.625 233.347656 82.851562 235.617188 82.851562 C 236.628906 82.851562 237.429688 83.191406 237.945312 83.765625 Z M 237.714844 85.175781 C 237.335938 84.949219 236.742188 84.71875 236.019531 84.71875 C 234.835938 84.71875 234.089844 85.519531 234.089844 87.695312 C 234.089844 89.871094 234.796875 90.769531 235.980469 90.769531 C 236.609375 90.769531 237.238281 90.464844 237.714844 89.96875 Z M 237.714844 85.175781 " />
    <path style=" stroke:none;fill-rule:nonzero;fill:rgb(10.196079%,23.921569%,42.352942%);fill-opacity:1;" d="M 250.214844 92.183594 L 248.476562 92.488281 L 245.691406 83.039062 L 248.496094 83.039062 L 250.480469 90.886719 L 250.519531 90.886719 L 252.523438 83.039062 L 255.003906 83.039062 L 252.121094 92.625 C 251.320312 95.316406 249.964844 96.308594 248.039062 96.308594 C 246.988281 96.308594 245.808594 95.71875 245.40625 95.371094 L 246.191406 93.675781 L 246.417969 93.675781 C 246.492188 93.730469 247.277344 94.34375 248.152344 94.34375 C 249.144531 94.34375 249.792969 93.65625 250.140625 92.453125 L 250.214844 92.1875 Z M 250.214844 92.183594 " />
    <path style=" stroke:none;fill-rule:nonzero;fill:rgb(10.196079%,23.921569%,42.352942%);fill-opacity:1;" d="M 130.832031 111.238281 L 128.390625 111.238281 L 131.882812 98.347656 L 136.039062 98.347656 L 139.417969 111.238281 L 136.613281 111.238281 L 135.945312 108.335938 L 131.519531 108.335938 Z M 131.535156 97.644531 C 131.519531 97.453125 131.363281 96.402344 131.34375 96.210938 L 136.609375 95.503906 L 136.59375 97.335938 Z M 133.386719 100.546875 L 131.976562 106.3125 L 135.488281 106.3125 L 134.167969 100.546875 Z M 133.386719 100.546875 " />
    <path style=" stroke:none;fill-rule:nonzero;fill:rgb(10.196079%,23.921569%,42.352942%);fill-opacity:1;" d="M 146.074219 103.964844 C 145.769531 103.867188 145.332031 103.8125 144.914062 103.8125 C 144.246094 103.8125 143.652344 104.097656 143.234375 104.441406 L 143.234375 111.238281 L 140.753906 111.238281 L 140.753906 101.882812 L 142.488281 101.882812 L 142.757812 103.144531 L 142.8125 103.144531 C 143.101562 102.472656 143.941406 101.710938 145.046875 101.710938 C 145.542969 101.710938 145.921875 101.789062 146.132812 101.84375 Z M 146.074219 103.964844 " />
    <path style=" stroke:none;fill-rule:nonzero;fill:rgb(10.196079%,23.921569%,42.352942%);fill-opacity:1;" d="M 149.242188 107.226562 C 149.242188 108.714844 150.082031 109.535156 151.648438 109.535156 C 152.601562 109.535156 153.574219 109.175781 154.394531 108.753906 L 154.871094 110.507812 C 154.089844 110.929688 152.8125 111.425781 151.339844 111.425781 C 148.460938 111.425781 146.742188 109.632812 146.742188 106.539062 C 146.742188 103.65625 148.136719 101.6875 151.132812 101.6875 C 153.957031 101.6875 155.0625 103.789062 155.0625 106.136719 L 155.0625 107.226562 Z M 150.996094 103.523438 C 149.757812 103.523438 149.242188 104.648438 149.242188 105.757812 L 152.65625 105.757812 C 152.65625 104.554688 152.296875 103.523438 150.996094 103.523438 Z M 150.996094 103.523438 " />
    <path style=" stroke:none;fill-rule:nonzero;fill:rgb(10.196079%,23.921569%,42.352942%);fill-opacity:1;" d="M 162.714844 111.238281 L 162.371094 110.128906 C 161.894531 110.78125 160.957031 111.429688 159.640625 111.429688 C 157.773438 111.429688 156.511719 110.226562 156.511719 108.433594 C 156.511719 106.636719 157.789062 105.664062 160.042969 105.664062 L 162.007812 105.664062 L 162.007812 105.1875 C 162.007812 103.984375 161.320312 103.601562 160.367188 103.601562 C 159.261719 103.601562 158.324219 103.886719 157.5625 104.230469 L 156.933594 102.457031 C 157.867188 102.054688 159.144531 101.691406 160.617188 101.691406 C 163.265625 101.691406 164.410156 102.914062 164.410156 105.300781 L 164.410156 111.238281 Z M 162.007812 107.152344 L 160.460938 107.152344 C 159.433594 107.152344 158.953125 107.648438 158.953125 108.355469 C 158.953125 109.214844 159.414062 109.726562 160.347656 109.726562 C 160.941406 109.726562 161.550781 109.460938 162.007812 109.097656 Z M 162.007812 107.152344 " />
    <path style=" stroke:none;fill-rule:nonzero;fill:rgb(10.196079%,23.921569%,42.352942%);fill-opacity:1;" d="M 168.742188 104.34375 C 168.742188 105.796875 172.785156 105.355469 172.785156 108.410156 C 172.785156 110.109375 171.527344 111.425781 169.101562 111.425781 C 167.976562 111.425781 166.929688 111.101562 166.296875 110.738281 L 166.816406 109.003906 C 167.253906 109.308594 168.167969 109.652344 169.027344 109.652344 C 169.886719 109.652344 170.398438 109.191406 170.398438 108.621094 C 170.398438 106.941406 166.414062 107.496094 166.414062 104.308594 C 166.414062 102.933594 167.464844 101.691406 169.980469 101.691406 C 170.953125 101.691406 171.964844 101.882812 172.613281 102.148438 L 172.269531 103.964844 C 171.640625 103.675781 170.839844 103.484375 170.019531 103.484375 C 169.199219 103.484375 168.742188 103.8125 168.742188 104.34375 Z M 168.742188 104.34375 " />
    <path style=" stroke:none;fill-rule:nonzero;fill:rgb(10.196079%,23.921569%,42.352942%);fill-opacity:1;" d="M 182.917969 106.75 L 181.507812 106.75 L 181.507812 111.238281 L 179.007812 111.238281 L 179.007812 98.347656 L 182.917969 98.347656 C 185.550781 98.347656 187.824219 99.609375 187.824219 102.378906 C 187.824219 104.859375 185.953125 106.75 182.917969 106.75 Z M 182.863281 100.46875 L 181.507812 100.46875 L 181.507812 104.785156 L 182.863281 104.785156 C 184.332031 104.785156 185.171875 103.886719 185.171875 102.472656 C 185.171875 101.15625 184.292969 100.46875 182.863281 100.46875 Z M 182.863281 100.46875 " />
    <path style=" stroke:none;fill-rule:nonzero;fill:rgb(10.196079%,23.921569%,42.352942%);fill-opacity:1;" d="M 194.613281 103.964844 C 194.308594 103.867188 193.871094 103.8125 193.453125 103.8125 C 192.785156 103.8125 192.191406 104.097656 191.773438 104.441406 L 191.773438 111.238281 L 189.292969 111.238281 L 189.292969 101.882812 L 191.027344 101.882812 L 191.296875 103.144531 L 191.351562 103.144531 C 191.640625 102.472656 192.480469 101.710938 193.585938 101.710938 C 194.082031 101.710938 194.460938 101.789062 194.671875 101.84375 Z M 194.613281 103.964844 " />
    <path style=" stroke:none;fill-rule:nonzero;fill:rgb(10.196079%,23.921569%,42.352942%);fill-opacity:1;" d="M 204.039062 106.539062 C 204.039062 109.726562 202.4375 111.429688 199.652344 111.429688 C 196.867188 111.429688 195.265625 109.746094 195.265625 106.539062 C 195.265625 103.789062 196.792969 101.691406 199.652344 101.691406 C 202.511719 101.691406 204.039062 103.789062 204.039062 106.539062 Z M 201.484375 106.539062 C 201.484375 104.289062 200.816406 103.503906 199.652344 103.503906 C 198.488281 103.503906 197.839844 104.308594 197.839844 106.539062 C 197.839844 108.773438 198.429688 109.59375 199.652344 109.59375 C 200.875 109.59375 201.484375 108.773438 201.484375 106.539062 Z M 201.484375 106.539062 " />
    <path style=" stroke:none;fill-rule:nonzero;fill:rgb(10.196079%,23.921569%,42.352942%);fill-opacity:1;" d="M 209.363281 111.429688 C 207.703125 111.429688 206.617188 110.644531 206.617188 108.296875 L 206.617188 103.660156 L 205.222656 103.660156 L 205.222656 101.882812 L 206.617188 101.882812 L 206.617188 100.261719 L 209.078125 99.460938 L 209.078125 101.882812 L 211.578125 101.882812 L 211.578125 103.660156 L 209.078125 103.660156 L 209.078125 108.242188 C 209.078125 108.890625 209.402344 109.308594 210.070312 109.308594 C 210.585938 109.308594 211.121094 109.15625 211.5 108.964844 L 211.882812 110.800781 C 211.332031 111.125 210.355469 111.429688 209.363281 111.429688 Z M 209.363281 111.429688 " />
    <path style=" stroke:none;fill-rule:nonzero;fill:rgb(10.196079%,23.921569%,42.352942%);fill-opacity:1;" d="M 215.144531 107.226562 C 215.144531 108.714844 215.984375 109.535156 217.550781 109.535156 C 218.503906 109.535156 219.476562 109.175781 220.296875 108.753906 L 220.773438 110.507812 C 219.992188 110.929688 218.710938 111.425781 217.242188 111.425781 C 214.363281 111.425781 212.644531 109.632812 212.644531 106.539062 C 212.644531 103.65625 214.039062 101.6875 217.035156 101.6875 C 219.859375 101.6875 220.964844 103.789062 220.964844 106.136719 L 220.964844 107.226562 Z M 216.898438 103.523438 C 215.660156 103.523438 215.144531 104.648438 215.144531 105.757812 L 218.5625 105.757812 C 218.5625 104.554688 218.199219 103.523438 216.898438 103.523438 Z M 216.898438 103.523438 " />
    <path style=" stroke:none;fill-rule:nonzero;fill:rgb(10.196079%,23.921569%,42.352942%);fill-opacity:1;" d="M 231.324219 101.882812 L 231.285156 103.734375 C 230.847656 103.714844 230.160156 103.621094 229.53125 103.410156 C 229.949219 103.792969 230.390625 104.269531 230.464844 104.878906 C 230.464844 107.171875 228.195312 108.085938 226.613281 108.085938 C 226.25 108.085938 225.8125 108.011719 225.410156 107.914062 C 225.125 108.011719 224.953125 108.183594 224.953125 108.433594 C 224.953125 109.445312 230.886719 108.257812 230.886719 111.773438 C 230.886719 113.96875 228.789062 115.171875 226.441406 115.171875 C 224.476562 115.171875 222.492188 114.3125 222.492188 112.597656 C 222.492188 111.390625 223.445312 110.761719 224.972656 110.53125 C 223.808594 110.398438 222.640625 110.039062 222.640625 108.949219 C 222.640625 108.164062 223.367188 107.59375 224.414062 107.515625 C 223.480469 107 222.738281 106.21875 222.738281 104.882812 C 222.738281 102.398438 225.082031 101.695312 226.589844 101.695312 C 227.601562 101.695312 229.699219 101.867188 231.320312 101.886719 Z M 226.230469 110.703125 C 225.351562 110.777344 224.800781 111.273438 224.800781 112.074219 C 224.800781 112.878906 225.542969 113.488281 226.554688 113.488281 C 227.679688 113.488281 228.425781 112.914062 228.425781 111.941406 C 228.425781 111.121094 227.699219 110.816406 226.230469 110.703125 Z M 228.253906 104.859375 C 228.253906 103.753906 227.316406 103.464844 226.59375 103.464844 C 225.867188 103.464844 224.914062 103.75 224.914062 104.859375 C 224.914062 106.042969 225.808594 106.328125 226.59375 106.328125 C 227.375 106.328125 228.253906 106.042969 228.253906 104.859375 Z M 228.253906 104.859375 " />
    <path style=" stroke:none;fill-rule:nonzero;fill:rgb(10.196079%,23.921569%,42.352942%);fill-opacity:1;" d="M 233.710938 111.238281 L 233.710938 103.675781 L 232.621094 103.449219 L 232.621094 101.882812 L 236.191406 101.882812 L 236.191406 111.238281 Z M 233.632812 98.0625 L 236.152344 98.0625 L 236.152344 100.335938 L 233.632812 100.335938 Z M 233.632812 98.0625 " />
    <path style=" stroke:none;fill-rule:nonzero;fill:rgb(10.196079%,23.921569%,42.352942%);fill-opacity:1;" d="M 244.507812 102.609375 C 244.355469 102.074219 244.28125 101.597656 244.28125 100.890625 L 244.28125 98.0625 L 246.761719 98.0625 L 246.761719 111.238281 L 244.738281 111.238281 L 244.453125 110.207031 C 244.070312 110.78125 243.175781 111.429688 241.972656 111.429688 C 239.855469 111.429688 238.15625 109.902344 238.15625 106.5625 C 238.15625 103.46875 239.910156 101.691406 242.183594 101.691406 C 243.191406 101.691406 243.996094 102.035156 244.511719 102.609375 Z M 244.28125 104.019531 C 243.898438 103.792969 243.308594 103.5625 242.582031 103.5625 C 241.398438 103.5625 240.65625 104.363281 240.65625 106.539062 C 240.65625 108.714844 241.363281 109.613281 242.542969 109.613281 C 243.171875 109.613281 243.804688 109.308594 244.28125 108.8125 Z M 244.28125 104.019531 " />
    <path style=" stroke:none;fill-rule:nonzero;fill:rgb(10.196079%,23.921569%,42.352942%);fill-opacity:1;" d="M 254.773438 111.238281 L 254.429688 110.128906 C 253.953125 110.78125 253.019531 111.429688 251.699219 111.429688 C 249.832031 111.429688 248.570312 110.226562 248.570312 108.433594 C 248.570312 106.636719 249.851562 105.664062 252.101562 105.664062 L 254.066406 105.664062 L 254.066406 105.1875 C 254.066406 103.984375 253.378906 103.601562 252.425781 103.601562 C 251.320312 103.601562 250.386719 103.886719 249.621094 104.230469 L 248.992188 102.457031 C 249.925781 102.054688 251.207031 101.691406 252.675781 101.691406 C 255.328125 101.691406 256.472656 102.914062 256.472656 105.300781 L 256.472656 111.238281 Z M 254.070312 107.152344 L 252.523438 107.152344 C 251.492188 107.152344 251.015625 107.648438 251.015625 108.355469 C 251.015625 109.214844 251.476562 109.726562 252.410156 109.726562 C 253 109.726562 253.613281 109.460938 254.070312 109.097656 Z M 254.070312 107.152344 " />
    <path style=" stroke:none;fill-rule:nonzero;fill:rgb(10.196079%,23.921569%,42.352942%);fill-opacity:1;" d="M 260.804688 104.34375 C 260.804688 105.796875 264.847656 105.355469 264.847656 108.410156 C 264.847656 110.109375 263.589844 111.425781 261.164062 111.425781 C 260.039062 111.425781 258.992188 111.101562 258.359375 110.738281 L 258.875 109.003906 C 259.316406 109.308594 260.230469 109.652344 261.089844 109.652344 C 261.949219 109.652344 262.460938 109.191406 262.460938 108.621094 C 262.460938 106.941406 258.476562 107.496094 258.476562 104.308594 C 258.476562 102.933594 259.523438 101.691406 262.042969 101.691406 C 263.015625 101.691406 264.027344 101.882812 264.675781 102.148438 L 264.332031 103.964844 C 263.703125 103.675781 262.902344 103.484375 262.082031 103.484375 C 261.261719 103.484375 260.804688 103.8125 260.804688 104.34375 Z M 260.804688 104.34375 " />
    <path style=" stroke:none;fill-rule:nonzero;fill:rgb(10.196079%,23.921569%,42.352942%);fill-opacity:1;" d="M 59.519531 66.035156 C 59.769531 65.363281 54.40625 63.484375 52.425781 62.996094 C 51.960938 62.925781 41.410156 58.570312 41.480469 58.105469 C 41.558594 57.578125 41.128906 57.050781 40.511719 56.9375 C 40.875 56.632812 41.320312 56.316406 41.679688 56.242188 C 42.410156 56.085938 43.863281 55.410156 43.261719 55.375 C 42.660156 55.335938 42.207031 55.128906 42.207031 55.128906 C 41.289062 54.285156 39.863281 54.941406 38.929688 55.542969 C 38.921875 55.546875 38.914062 55.546875 38.910156 55.539062 C 38.699219 55.214844 38.242188 54.765625 37.375 54.960938 C 36.167969 55.234375 27.828125 44.621094 26.632812 40.960938 C 25.632812 39.03125 22.265625 33.890625 21.535156 34.253906 C 20.957031 34.546875 25.4375 40.828125 25.21875 41.132812 C 25 41.4375 19.820312 35.332031 19.15625 36.027344 C 18.742188 36.464844 22.925781 41.402344 22.703125 41.617188 C 22.441406 41.878906 18.066406 38.222656 17.65625 39.003906 C 17.441406 39.414062 21.425781 42.753906 21.265625 43.066406 C 21.105469 43.375 17.867188 41.75 17.730469 42.203125 C 17.601562 42.632812 20.542969 44.769531 20.542969 44.769531 C 20.660156 44.945312 20.777344 45.136719 20.894531 45.339844 L 20.898438 45.339844 C 23.34375 49.757812 25.945312 53.777344 28.886719 56.878906 C 28.914062 56.902344 28.941406 56.929688 28.96875 56.953125 L 30.078125 57.949219 C 30.078125 57.949219 25.425781 57.648438 25.367188 57.742188 C 25.132812 58.109375 25.253906 60.804688 25.605469 61.113281 C 25.9375 61.40625 27.050781 61.332031 27.050781 61.332031 C 27.050781 61.332031 25.894531 61.679688 26.160156 62.199219 C 26.335938 62.539062 26.765625 62.957031 27.042969 63.210938 C 27.195312 63.347656 27.410156 63.378906 27.597656 63.292969 L 28.300781 62.976562 C 28.300781 62.976562 27.644531 63.6875 27.796875 63.984375 C 27.949219 64.28125 28.664062 64.414062 28.816406 64.707031 C 28.96875 65.003906 30.476562 65.761719 30.96875 65.507812 C 31.460938 65.257812 31.882812 64.386719 31.882812 64.386719 L 31.941406 65.355469 C 32.410156 65.945312 34.460938 65.445312 35.308594 65.222656 C 35.527344 65.164062 35.667969 64.960938 35.652344 64.738281 L 35.480469 62.417969 C 35.480469 62.417969 35.878906 62.386719 36.660156 63.0625 C 37.953125 64.175781 48.132812 67.894531 49.222656 68.125 C 49.464844 68.195312 49.683594 68.269531 49.882812 68.347656 C 49.882812 68.347656 52.128906 70.757812 52.441406 70.625 C 52.867188 70.445312 50.867188 68.027344 51.140625 67.835938 C 51.417969 67.648438 54.882812 70.265625 55.246094 70.011719 C 55.9375 69.527344 51.578125 66.578125 51.792969 66.3125 C 51.972656 66.089844 57.597656 68.878906 57.957031 68.453125 C 58.53125 67.777344 52.070312 64.9375 52.328125 64.703125 C 52.59375 64.46875 59.320312 66.566406 59.519531 66.03125 Z M 59.519531 66.035156 " />
    <path style=" stroke:none;fill-rule:nonzero;fill:rgb(88.235295%,85.490197%,81.960785%);fill-opacity:1;" d="M 86.214844 39.226562 C 86.214844 39.226562 92.402344 42.136719 94.1875 37.578125 C 94.269531 37.367188 94.347656 37.164062 94.425781 36.96875 C 94.535156 36.695312 94.453125 36.375 94.21875 36.195312 C 93.355469 35.511719 92.472656 34.855469 91.574219 34.222656 C 91.195312 33.957031 90.671875 34.140625 90.542969 34.582031 C 90.023438 36.355469 88.84375 37.773438 86.214844 39.226562 Z M 86.214844 39.226562 " />
    <path style=" stroke:none;fill-rule:nonzero;fill:rgb(88.235295%,85.490197%,81.960785%);fill-opacity:1;" d="M 87.382812 32.289062 C 87.386719 32.1875 87.394531 32.089844 87.398438 31.992188 C 87.421875 31.734375 87.289062 31.488281 87.066406 31.359375 C 86.140625 30.828125 85.203125 30.328125 84.246094 29.847656 C 83.75 29.597656 83.179688 30.035156 83.289062 30.582031 C 83.492188 31.566406 83.621094 32.847656 83.621094 34.519531 C 83.621094 34.519531 87.320312 34.800781 87.382812 32.289062 Z M 87.382812 32.289062 " />
    <path style=" stroke:none;fill-rule:nonzero;fill:rgb(88.235295%,85.490197%,81.960785%);fill-opacity:1;" d="M 97.421875 48.414062 C 99.488281 46.820312 100.949219 45.519531 101.96875 44.515625 C 102.21875 44.269531 102.234375 43.867188 102.003906 43.597656 C 101.0625 42.523438 100.089844 41.484375 99.074219 40.484375 C 98.773438 40.1875 98.277344 40.234375 98.042969 40.585938 C 96.152344 43.378906 92.488281 47.035156 86.195312 45.574219 C 86.195312 45.574219 89.953125 53.378906 97.421875 48.414062 Z M 97.421875 48.414062 " />
    <path style=" stroke:none;fill-rule:nonzero;fill:rgb(88.235295%,85.490197%,81.960785%);fill-opacity:1;" d="M 110.285156 55.949219 C 109.046875 53.46875 107.632812 51.082031 106.066406 48.816406 C 105.820312 48.457031 105.296875 48.421875 105.011719 48.753906 C 102.035156 52.167969 95.785156 57.496094 86.96875 55.519531 C 86.96875 55.519531 84.144531 55.707031 84.144531 60.25 L 84.144531 95.136719 C 93.421875 83.210938 102.074219 71.523438 109.957031 59.722656 C 110.761719 58.625 110.894531 57.167969 110.285156 55.953125 Z M 110.285156 55.949219 " />
    <path style=" stroke:none;fill-rule:nonzero;fill:rgb(88.235295%,85.490197%,81.960785%);fill-opacity:1;" d="M 77.785156 60.25 C 77.785156 55.707031 74.960938 55.519531 74.960938 55.519531 C 62.304688 58.355469 54.949219 46.144531 54.949219 46.144531 C 54.949219 46.144531 52.492188 42.824219 54.210938 41.164062 C 55.929688 39.503906 57.773438 41.964844 57.773438 41.964844 C 57.773438 41.964844 58.941406 44.117188 64.507812 48.414062 C 71.636719 52.757812 75.734375 45.574219 75.734375 45.574219 C 68.335938 47.289062 64.570312 41.9375 63.054688 39.226562 C 61.535156 36.515625 61.996094 32.355469 63.648438 32.160156 C 65.296875 31.960938 65.960938 33.019531 67.742188 37.578125 C 69.527344 42.136719 75.714844 39.230469 75.714844 39.230469 C 72.128906 37.246094 71.242188 35.332031 71.042969 32.492188 C 70.847656 29.648438 73.027344 29.648438 73.027344 29.648438 C 73.027344 29.648438 74.476562 29.78125 74.542969 32.292969 C 74.609375 34.804688 78.304688 34.523438 78.304688 34.523438 C 78.304688 31.265625 78.808594 29.484375 79.382812 28.507812 C 79.589844 28.152344 79.421875 27.695312 79.039062 27.550781 C 72.585938 25.078125 65.578125 23.71875 58.257812 23.71875 C 46.8125 23.71875 36.140625 27.039062 27.144531 32.765625 C 26.546875 33.144531 26.359375 33.929688 26.71875 34.539062 C 31.511719 42.691406 37.6875 52.867188 39.027344 52.4375 C 41.910156 51.515625 45.960938 53.410156 45.824219 55.804688 C 45.664062 58.648438 48.667969 58.082031 58.03125 61.628906 C 60.828125 62.691406 61.515625 62.945312 61.515625 65.515625 C 61.515625 70.832031 53.308594 74.390625 50.894531 72.699219 C 45.417969 68.867188 38.117188 66.269531 38.117188 66.269531 C 35.984375 65.9375 31.769531 71.726562 25.382812 66.3125 C 18.15625 60.1875 25.519531 55.546875 25.121094 54.917969 C 24.820312 54.441406 19.960938 49.328125 15.511719 44.675781 C 14.972656 44.113281 14.054688 44.140625 13.554688 44.742188 C 5.144531 54.863281 0.101562 67.882812 0.152344 82.070312 C 0.171875 87.285156 0.875 92.335938 2.179688 97.140625 C 2.429688 98.046875 3.28125 98.652344 4.21875 98.605469 C 8.546875 98.390625 12.503906 98.5 16.125 98.945312 C 17.222656 99.078125 18.238281 98.375 18.515625 97.300781 C 20.992188 87.636719 29.753906 80.492188 40.1875 80.492188 C 51.65625 80.492188 61.109375 89.125 62.410156 100.253906 C 62.476562 100.839844 63.21875 101.046875 63.585938 100.585938 L 63.625 100.539062 C 64.960938 98.882812 66.847656 97.882812 68.953125 97.710938 C 71.058594 97.539062 73.082031 98.222656 74.65625 99.632812 C 75.527344 100.410156 76.632812 100.804688 77.785156 100.753906 Z M 77.785156 60.25 " />
    <path style=" stroke:none;fill-rule:nonzero;fill:rgb(60.392159%,68.235296%,21.176471%);fill-opacity:1;" d="M 113.394531 63.789062 C 113.265625 63.371094 112.714844 63.273438 112.453125 63.621094 C 102.460938 75.691406 94.550781 88.761719 86.183594 100.835938 C 84.90625 102.566406 82.28125 104.089844 80.144531 104.308594 C 78.050781 104.527344 75.609375 103.484375 74.019531 102.101562 C 73.070312 101.273438 71.84375 100.804688 70.59375 100.921875 C 69.394531 101.03125 68.316406 101.605469 67.558594 102.546875 L 57.460938 116.273438 C 49.007812 126.425781 40.558594 129.234375 35.347656 130.117188 C 33.949219 130.355469 32.667969 130.449219 31.527344 130.449219 C 30.425781 130.449219 29.007812 130.363281 27.796875 130.242188 C 27.261719 130.191406 27.019531 130.894531 27.476562 131.179688 C 36.402344 136.769531 46.953125 140 58.257812 140 C 90.34375 140 116.359375 113.96875 116.359375 81.859375 C 116.359375 75.910156 115.058594 69.1875 113.394531 63.789062 Z M 113.394531 63.789062 " />
    <path style=" stroke:none;fill-rule:nonzero;fill:rgb(0.784314%,63.921571%,74.509805%);fill-opacity:1;" d="M 49.898438 116.832031 C 49.03125 117.019531 47.769531 117.269531 47.167969 117.285156 L 46.867188 117.289062 C 44.71875 117.289062 42.640625 116.6875 40.65625 115.496094 L 40.226562 117.621094 C 40.007812 118.707031 38.902344 119.363281 37.84375 119.042969 C 36.621094 118.421875 35.238281 118.03125 33.75 117.789062 C 32.707031 117.46875 32.15625 116.328125 32.554688 115.308594 L 34.574219 110.1875 C 27.800781 104.550781 16.464844 101.628906 4.816406 101.507812 C 4.214844 101.5 3.792969 102.109375 4.015625 102.671875 C 7.625 111.90625 13.617188 120.289062 21.089844 126.519531 C 21.089844 126.519531 36.25 133.75 50.207031 117.351562 C 50.40625 117.121094 50.195312 116.769531 49.898438 116.835938 Z M 49.898438 116.832031 " />
    <path style=" stroke:none;fill-rule:nonzero;fill:rgb(10.196079%,23.921569%,42.352942%);fill-opacity:1;" d="M 38.363281 117.210938 C 38.707031 109.199219 40.644531 106.507812 40.644531 106.507812 C 52.0625 103.527344 52.453125 99.457031 52.847656 97.191406 C 53.242188 94.925781 51.574219 95.40625 51.15625 96.414062 C 50.742188 97.421875 49.742188 97.207031 49.742188 97.207031 C 43.152344 96.121094 40.339844 98.074219 40.339844 98.074219 C 32.722656 92.816406 30.945312 96.328125 29.679688 93.421875 C 28.417969 90.515625 27.785156 93.292969 27.785156 93.292969 C 25.9375 100.527344 36.738281 105.132812 37.359375 106.8125 C 37.980469 108.492188 34.574219 115.816406 34.574219 115.816406 C 34.878906 116.308594 35.359375 116.253906 35.949219 116.1875 C 36.507812 116.152344 36.964844 116.339844 37.285156 116.804688 C 37.59375 117.277344 37.847656 117.335938 38.363281 117.214844 " />
  </g>
</svg>